<svg xmlns="http://www.w3.org/2000/svg" viewBox="0 0 120 120" fill="none">
  <defs>
    <linearGradient id="verdantGradient" x1="0%" y1="0%" x2="100%" y2="100%">
      <stop offset="0%" style="stop-color:#10b981"/>
      <stop offset="100%" style="stop-color:#059669"/>
    </linearGradient>
  </defs>
  <!-- Background -->
  <rect width="120" height="120" rx="24" fill="url(#verdantGradient)"/>
  <!-- Document icon -->
  <path d="M38 22h28l18 18v55c0 3.3-2.7 6-6 6H38c-3.3 0-6-2.7-6-6V28c0-3.3 2.7-6 6-6z" fill="white" opacity="0.95"/>
  <!-- Folded corner -->
  <path d="M66 22v18h18" fill="none" stroke="white" stroke-width="2" opacity="0.6"/>
  <path d="M66 22l18 18h-12c-3.3 0-6-2.7-6-6V22z" fill="white" opacity="0.3"/>
  <!-- Document lines -->
  <path d="M44 52h30" stroke="#059669" stroke-width="3" stroke-linecap="round"/>
  <path d="M44 64h24" stroke="#059669" stroke-width="3" stroke-linecap="round" opacity="0.7"/>
  <path d="M44 76h18" stroke="#059669" stroke-width="3" stroke-linecap="round" opacity="0.5"/>
  <!-- AI sparkle circle -->
  <circle cx="88" cy="88" r="22" fill="white"/>
  <circle cx="88" cy="88" r="18" fill="#ecfdf5"/>
  <!-- AI brain/spark icon -->
  <path d="M88 78v20M78 88h20" stroke="#10b981" stroke-width="3" stroke-linecap="round"/>
  <circle cx="80" cy="80" r="2.5" fill="#059669"/>
  <circle cx="96" cy="80" r="2.5" fill="#059669"/>
  <circle cx="80" cy="96" r="2.5" fill="#059669"/>
  <circle cx="96" cy="96" r="2.5" fill="#059669"/>
</svg>
